<mxfile host="app.diagrams.net" agent="Mozilla/5.0 (X11; Linux x86_64; rv:136.0) Gecko/20100101 Firefox/136.0" version="26.2.1">
  <diagram name="PÃ¡gina-1" id="-_jd0N-1cC5gI0tZXDiK">
    <mxGraphModel dx="1578" dy="809" grid="1" gridSize="10" guides="1" tooltips="1" connect="1" arrows="1" fold="1" page="1" pageScale="1" pageWidth="1169" pageHeight="827" background="#CCFFFF" math="0" shadow="0">
      <root>
        <mxCell id="0" />
        <mxCell id="1" parent="0" />
        <mxCell id="hxJuXPhHnsas2K4DEFYE-23" value="" style="rounded=0;whiteSpace=wrap;html=1;fillColor=none;" vertex="1" parent="1">
          <mxGeometry x="20" y="60" width="1060" height="640" as="geometry" />
        </mxCell>
        <mxCell id="hxJuXPhHnsas2K4DEFYE-11" style="edgeStyle=orthogonalEdgeStyle;rounded=0;orthogonalLoop=1;jettySize=auto;html=1;exitX=0.5;exitY=0;exitDx=0;exitDy=0;" edge="1" parent="1" source="hxJuXPhHnsas2K4DEFYE-1" target="hxJuXPhHnsas2K4DEFYE-4">
          <mxGeometry relative="1" as="geometry" />
        </mxCell>
        <mxCell id="hxJuXPhHnsas2K4DEFYE-12" style="edgeStyle=orthogonalEdgeStyle;rounded=0;orthogonalLoop=1;jettySize=auto;html=1;exitX=0.5;exitY=1;exitDx=0;exitDy=0;entryX=0;entryY=0.5;entryDx=0;entryDy=0;" edge="1" parent="1" source="hxJuXPhHnsas2K4DEFYE-1" target="hxJuXPhHnsas2K4DEFYE-3">
          <mxGeometry relative="1" as="geometry" />
        </mxCell>
        <mxCell id="hxJuXPhHnsas2K4DEFYE-1" value="&lt;font style=&quot;font-size: 20px;&quot;&gt;A&lt;/font&gt;" style="ellipse;whiteSpace=wrap;html=1;aspect=fixed;flipH=1;flipV=1;fontFamily=Verdana;" vertex="1" parent="1">
          <mxGeometry x="220" y="510" width="80" height="80" as="geometry" />
        </mxCell>
        <mxCell id="hxJuXPhHnsas2K4DEFYE-15" style="edgeStyle=orthogonalEdgeStyle;rounded=0;orthogonalLoop=1;jettySize=auto;html=1;exitX=1;exitY=0.5;exitDx=0;exitDy=0;entryX=0;entryY=1;entryDx=0;entryDy=0;" edge="1" parent="1" source="hxJuXPhHnsas2K4DEFYE-3" target="hxJuXPhHnsas2K4DEFYE-5">
          <mxGeometry relative="1" as="geometry">
            <Array as="points">
              <mxPoint x="472" y="630" />
            </Array>
          </mxGeometry>
        </mxCell>
        <mxCell id="hxJuXPhHnsas2K4DEFYE-3" value="&lt;font style=&quot;font-size: 20px;&quot;&gt;C&lt;/font&gt;" style="ellipse;whiteSpace=wrap;html=1;aspect=fixed;flipH=1;flipV=1;fontFamily=Verdana;" vertex="1" parent="1">
          <mxGeometry x="340" y="590" width="80" height="80" as="geometry" />
        </mxCell>
        <mxCell id="hxJuXPhHnsas2K4DEFYE-14" style="edgeStyle=orthogonalEdgeStyle;rounded=0;orthogonalLoop=1;jettySize=auto;html=1;exitX=1;exitY=0.5;exitDx=0;exitDy=0;entryX=0;entryY=0;entryDx=0;entryDy=0;" edge="1" parent="1" source="hxJuXPhHnsas2K4DEFYE-4" target="hxJuXPhHnsas2K4DEFYE-5">
          <mxGeometry relative="1" as="geometry">
            <Array as="points">
              <mxPoint x="472" y="470" />
            </Array>
          </mxGeometry>
        </mxCell>
        <mxCell id="hxJuXPhHnsas2K4DEFYE-4" value="&lt;font style=&quot;font-size: 20px;&quot;&gt;B&lt;/font&gt;" style="ellipse;whiteSpace=wrap;html=1;aspect=fixed;flipH=1;flipV=1;fontFamily=Verdana;" vertex="1" parent="1">
          <mxGeometry x="340" y="430" width="80" height="80" as="geometry" />
        </mxCell>
        <mxCell id="hxJuXPhHnsas2K4DEFYE-16" style="edgeStyle=orthogonalEdgeStyle;rounded=0;orthogonalLoop=1;jettySize=auto;html=1;exitX=1;exitY=1;exitDx=0;exitDy=0;entryX=0;entryY=0.5;entryDx=0;entryDy=0;" edge="1" parent="1" source="hxJuXPhHnsas2K4DEFYE-5" target="hxJuXPhHnsas2K4DEFYE-6">
          <mxGeometry relative="1" as="geometry">
            <Array as="points">
              <mxPoint x="528" y="630" />
            </Array>
          </mxGeometry>
        </mxCell>
        <mxCell id="hxJuXPhHnsas2K4DEFYE-17" style="edgeStyle=orthogonalEdgeStyle;rounded=0;orthogonalLoop=1;jettySize=auto;html=1;exitX=1;exitY=0;exitDx=0;exitDy=0;entryX=0;entryY=0.5;entryDx=0;entryDy=0;" edge="1" parent="1" source="hxJuXPhHnsas2K4DEFYE-5" target="hxJuXPhHnsas2K4DEFYE-7">
          <mxGeometry relative="1" as="geometry">
            <Array as="points">
              <mxPoint x="528" y="470" />
            </Array>
          </mxGeometry>
        </mxCell>
        <mxCell id="hxJuXPhHnsas2K4DEFYE-5" value="&lt;font style=&quot;font-size: 20px;&quot;&gt;D&lt;/font&gt;" style="ellipse;whiteSpace=wrap;html=1;aspect=fixed;flipH=1;flipV=1;fontFamily=Verdana;" vertex="1" parent="1">
          <mxGeometry x="460" y="510" width="80" height="80" as="geometry" />
        </mxCell>
        <mxCell id="hxJuXPhHnsas2K4DEFYE-19" style="edgeStyle=orthogonalEdgeStyle;rounded=0;orthogonalLoop=1;jettySize=auto;html=1;exitX=1;exitY=0.5;exitDx=0;exitDy=0;entryX=0.5;entryY=1;entryDx=0;entryDy=0;" edge="1" parent="1" source="hxJuXPhHnsas2K4DEFYE-6" target="hxJuXPhHnsas2K4DEFYE-8">
          <mxGeometry relative="1" as="geometry" />
        </mxCell>
        <mxCell id="hxJuXPhHnsas2K4DEFYE-6" value="&lt;font style=&quot;font-size: 20px;&quot;&gt;F&lt;/font&gt;" style="ellipse;whiteSpace=wrap;html=1;aspect=fixed;flipH=1;flipV=1;fontFamily=Verdana;" vertex="1" parent="1">
          <mxGeometry x="580" y="590" width="80" height="80" as="geometry" />
        </mxCell>
        <mxCell id="hxJuXPhHnsas2K4DEFYE-18" style="edgeStyle=orthogonalEdgeStyle;rounded=0;orthogonalLoop=1;jettySize=auto;html=1;exitX=1;exitY=0.5;exitDx=0;exitDy=0;entryX=0.5;entryY=0;entryDx=0;entryDy=0;" edge="1" parent="1" source="hxJuXPhHnsas2K4DEFYE-7" target="hxJuXPhHnsas2K4DEFYE-8">
          <mxGeometry relative="1" as="geometry" />
        </mxCell>
        <mxCell id="hxJuXPhHnsas2K4DEFYE-7" value="&lt;font style=&quot;font-size: 20px;&quot;&gt;E&lt;/font&gt;" style="ellipse;whiteSpace=wrap;html=1;aspect=fixed;flipH=1;flipV=1;fontFamily=Verdana;" vertex="1" parent="1">
          <mxGeometry x="580" y="430" width="80" height="80" as="geometry" />
        </mxCell>
        <mxCell id="hxJuXPhHnsas2K4DEFYE-20" style="edgeStyle=orthogonalEdgeStyle;rounded=0;orthogonalLoop=1;jettySize=auto;html=1;exitX=1;exitY=0.5;exitDx=0;exitDy=0;" edge="1" parent="1" source="hxJuXPhHnsas2K4DEFYE-8" target="hxJuXPhHnsas2K4DEFYE-9">
          <mxGeometry relative="1" as="geometry" />
        </mxCell>
        <mxCell id="hxJuXPhHnsas2K4DEFYE-8" value="&lt;font style=&quot;font-size: 20px;&quot;&gt;G&lt;/font&gt;" style="ellipse;whiteSpace=wrap;html=1;aspect=fixed;flipH=1;flipV=1;fontFamily=Verdana;" vertex="1" parent="1">
          <mxGeometry x="700" y="510" width="80" height="80" as="geometry" />
        </mxCell>
        <mxCell id="hxJuXPhHnsas2K4DEFYE-21" style="edgeStyle=orthogonalEdgeStyle;rounded=0;orthogonalLoop=1;jettySize=auto;html=1;exitX=1;exitY=0.5;exitDx=0;exitDy=0;entryX=0;entryY=0.5;entryDx=0;entryDy=0;" edge="1" parent="1" source="hxJuXPhHnsas2K4DEFYE-9" target="hxJuXPhHnsas2K4DEFYE-10">
          <mxGeometry relative="1" as="geometry" />
        </mxCell>
        <mxCell id="hxJuXPhHnsas2K4DEFYE-9" value="&lt;font style=&quot;font-size: 20px;&quot;&gt;H&lt;/font&gt;" style="ellipse;whiteSpace=wrap;html=1;aspect=fixed;flipH=1;flipV=1;fontFamily=Verdana;" vertex="1" parent="1">
          <mxGeometry x="820" y="510" width="80" height="80" as="geometry" />
        </mxCell>
        <mxCell id="hxJuXPhHnsas2K4DEFYE-10" value="&lt;font face=&quot;Garamond&quot; style=&quot;font-size: 20px;&quot;&gt;I&lt;/font&gt;" style="ellipse;whiteSpace=wrap;html=1;aspect=fixed;flipH=1;flipV=1;" vertex="1" parent="1">
          <mxGeometry x="940" y="510" width="80" height="80" as="geometry" />
        </mxCell>
        <mxCell id="hxJuXPhHnsas2K4DEFYE-22" style="edgeStyle=orthogonalEdgeStyle;rounded=0;orthogonalLoop=1;jettySize=auto;html=1;exitX=1;exitY=0.5;exitDx=0;exitDy=0;entryX=0;entryY=0.5;entryDx=0;entryDy=0;" edge="1" parent="1" source="hxJuXPhHnsas2K4DEFYE-13" target="hxJuXPhHnsas2K4DEFYE-1">
          <mxGeometry relative="1" as="geometry" />
        </mxCell>
        <mxCell id="hxJuXPhHnsas2K4DEFYE-13" value="Inicio" style="rounded=1;whiteSpace=wrap;html=1;fontFamily=Verdana;" vertex="1" parent="1">
          <mxGeometry x="90" y="520" width="90" height="60" as="geometry" />
        </mxCell>
      </root>
    </mxGraphModel>
  </diagram>
</mxfile>
